<svg id="black" xmlns="http://www.w3.org/2000/svg" viewBox="0 0 197.75 150.72"><defs><style>.cls-1{font-size:81.62px;}.cls-1,.cls-2{font-family:OpenSans-Bold, Open Sans;font-weight:700;}.cls-2{font-size:22.87px;fill:#fff;}.cls-3{letter-spacing:-0.03em;}.cls-4{letter-spacing:-0.02em;}</style></defs><path d="M98.81,2.53c53,0,96.12,32.45,96.12,72.32s-43.12,72.32-96.12,72.32S2.69,114.72,2.69,74.85,45.81,2.53,98.81,2.53m0-2.83c-54.65,0-99,33.65-99,75.15S44.16,150,98.81,150s98.95-33.65,98.95-75.15S153.46-.3,98.81-.3Z"/><text class="cls-1" transform="translate(31.97 85.35) scale(1.7 1)">M</text><path d="M187.36,96c-12.16,28.36-47.27,48.86-88.66,48.86S22.19,124.36,10,96Z"/><text class="cls-2" transform="translate(38.43 122.71)">HI-M<tspan class="cls-3" x="53.98" y="0">O</tspan><tspan class="cls-4" x="71.5" y="0">T</tspan><tspan x="84.28" y="0">OR</tspan></text></svg>