<svg xmlns="http://www.w3.org/2000/svg" viewBox="0 0 197.61 202.61"><defs><style>.cls-1,.cls-6{font-size:81.62px;}.cls-1,.cls-2,.cls-6{font-family:OpenSans-Bold, Open Sans;font-weight:700;}.cls-2{font-size:22.87px;fill:#fff;}.cls-3{letter-spacing:-0.03em;}.cls-4{letter-spacing:-0.02em;}.cls-5,.cls-6{fill:#037;}</style></defs><g id="black"><path d="M98.9,25.43c53,0,96.12,32.44,96.12,72.32S151.9,170.06,98.9,170.06,2.78,137.62,2.78,97.75,45.9,25.43,98.9,25.43m0-2.83c-54.65,0-99,33.64-99,75.15s44.31,75.15,99,75.15,99-33.65,99-75.15S153.55,22.6,98.9,22.6Z"/><text class="cls-1" transform="translate(32.06 108.25) scale(1.7 1)">M</text><path d="M187.45,118.9c-12.16,28.36-47.26,48.86-88.66,48.86s-76.5-20.5-88.66-48.86Z"/><text class="cls-2" transform="translate(38.52 145.61)">HI-M<tspan class="cls-3" x="53.98" y="0">O</tspan><tspan class="cls-4" x="71.5" y="0">T</tspan><tspan x="84.28" y="0">OR</tspan></text></g><g id="blue"><path class="cls-5" d="M99.27,25.29c53,0,96.12,32.44,96.12,72.32s-43.12,72.31-96.12,72.31S3.15,137.48,3.15,97.61,46.27,25.29,99.27,25.29m0-2.83C44.62,22.46.32,56.1.32,97.61s44.3,75.15,99,75.15,99-33.65,99-75.15-44.31-75.15-99-75.15Z"/><text class="cls-6" transform="translate(32.43 108.11) scale(1.7 1)">M</text><path class="cls-5" d="M187.83,118.76c-12.17,28.36-47.27,48.86-88.67,48.86s-76.5-20.5-88.66-48.86Z"/><text class="cls-2" transform="translate(38.89 145.47)">HI-M<tspan class="cls-3" x="53.98" y="0">O</tspan><tspan class="cls-4" x="71.5" y="0">T</tspan><tspan x="84.28" y="0">OR</tspan></text></g></svg>