<svg xmlns="http://www.w3.org/2000/svg" viewBox="0 0 508 208"><g id="motor"><path d="M370.61-.4C294.61-.4,233,46.28,233,103.85S294.61,208.1,370.61,208.1s137.61-46.67,137.61-104.25S446.61-.4,370.61-.4ZM454,170.12a10.67,10.67,0,0,1-10.87,10.46h-.82a10.67,10.67,0,0,1-10.87-10.46V91.62l.61-26.77h-.61l-12.8,26.77-7.48,14.31-24.27,46.45a17.94,17.94,0,0,1-31.77,1q-17.24-30.9-34.48-61.8c-.11-.2-.22-.41-.32-.62L308.89,67.17h-.61l.61,24.14v78.81a10.88,10.88,0,0,1-21.75,0V41.73A10.68,10.68,0,0,1,298,31.27h7.88a11,11,0,0,1,9.54,5.43l47.75,83.78c4.21,7.37,15.29,7.2,19.24-.31L426.19,37a10.92,10.92,0,0,1,9.7-5.74h7.24A10.68,10.68,0,0,1,454,41.73Z"/><path d="M273,21.54h0a4.81,4.81,0,0,1-4.81,4.82h-6.1c-2.66,0-2.82.15-2.82,2.81v6.1a4.81,4.81,0,0,1-4.81,4.82h0a4.81,4.81,0,0,1-4.81-4.82v-6.1c0-2.66-.16-2.81-2.82-2.81h-6.1a4.81,4.81,0,0,1-4.81-4.82h0a4.81,4.81,0,0,1,4.81-4.81h6.1c2.66,0,2.82-.16,2.82-2.81V7.81A4.81,4.81,0,0,1,254.43,3h0a4.81,4.81,0,0,1,4.81,4.81v6.11c0,2.65.16,2.81,2.82,2.81h6.1A4.81,4.81,0,0,1,273,21.54Z"/><path d="M467.54,19h0c0-3.68,2.53-6.67,5.66-6.67h23.14c3.13,0,5.66,3,5.66,6.67h0c0,3.68-2.53,6.66-5.66,6.66H473.2C470.07,25.62,467.54,22.64,467.54,19Z"/></g><g id="Hi"><path d="M116.5,201.85h0c-9.11,0-16.49-7.61-16.49-19.52V129.22c0-11.91-7.39-21.57-16.5-21.57H52.78c-9.11,0-16.5,9.66-16.5,21.57v53.11c0,11.91-7.38,19.52-16.49,19.52h-.11c-9.11,0-16.5-7.61-16.5-19.52v-161c0-11.91,7.39-19.53,16.5-19.53h.11c9.11,0,16.49,7.62,16.49,19.53v45c0,11.91,7.39,17.48,16.5,17.48H83.51c9.11,0,16.5-5.57,16.5-17.48v-45c0-11.91,7.38-19.53,16.49-19.53h0c9.11,0,16.5,7.62,16.5,19.53v161C133,194.24,125.61,201.85,116.5,201.85Z"/><path d="M182.66,51c-7.91,0-14.33,5.36-14.33,17.23V182.81c0,11.87,6.42,17.23,14.33,17.23S197,194.68,197,182.81V68.27C197,56.4,190.58,51,182.66,51Z"/><path d="M183.13,33.93q8.4,0,12.6-4t4.2-11.18q0-15.07-16.8-15.08t-16.8,15.08Q166.33,33.93,183.13,33.93Z"/></g></svg>