<svg xmlns="http://www.w3.org/2000/svg" viewBox="0 0 275.22 208.5"><g id="motor"><path d="M137.61,0C61.61,0,0,46.67,0,104.25S61.61,208.5,137.61,208.5s137.61-46.67,137.61-104.25S213.61,0,137.61,0ZM221,170.52A10.68,10.68,0,0,1,210.13,181h-.82a10.68,10.68,0,0,1-10.87-10.46V92l.61-26.77h-.61L185.64,92l-7.48,14.31-24.27,46.46a18,18,0,0,1-31.77,1Q104.89,122.91,87.64,92c-.11-.2-.22-.4-.32-.61L75.89,67.57h-.61l.61,24.13v78.82a10.88,10.88,0,0,1-21.75,0V42.13A10.67,10.67,0,0,1,65,31.67H72.9a10.94,10.94,0,0,1,9.54,5.43l47.75,83.77a11.08,11.08,0,0,0,19.24-.3l43.76-83.16a10.92,10.92,0,0,1,9.7-5.74h7.24A10.67,10.67,0,0,1,221,42.13Z"/><path d="M40,21.94h0a4.81,4.81,0,0,1-4.81,4.81h-6.1c-2.66,0-2.82.16-2.82,2.81v6.11a4.81,4.81,0,0,1-4.81,4.81h0a4.81,4.81,0,0,1-4.81-4.81V29.56c0-2.65-.16-2.81-2.82-2.81H7.7a4.81,4.81,0,0,1-4.81-4.81h0A4.81,4.81,0,0,1,7.7,17.12h6.1c2.66,0,2.82-.15,2.82-2.81V8.21A4.81,4.81,0,0,1,21.43,3.4h0a4.81,4.81,0,0,1,4.81,4.81v6.1c0,2.66.16,2.81,2.82,2.81h6.1A4.81,4.81,0,0,1,40,21.94Z"/><path d="M234.54,19.35h0c0-3.68,2.53-6.66,5.66-6.66h23.14c3.13,0,5.66,3,5.66,6.66h0C269,23,266.47,26,263.34,26H240.2C237.07,26,234.54,23,234.54,19.35Z"/></g></svg>