<svg xmlns="http://www.w3.org/2000/svg" viewBox="0 0 197.75 150.72"><defs><style>.cls-1,.cls-6{font-size:81.62px;}.cls-1,.cls-2,.cls-6{font-family:OpenSans-Bold, Open Sans;font-weight:700;}.cls-2{font-size:22.87px;fill:#fff;}.cls-3{letter-spacing:-0.03em;}.cls-4{letter-spacing:-0.02em;}.cls-5,.cls-6{fill:#037;}</style></defs><g id="black"><path d="M98.81,2.53c53,0,96.12,32.45,96.12,72.32s-43.12,72.32-96.12,72.32S2.69,114.72,2.69,74.85,45.81,2.53,98.81,2.53m0-2.83c-54.65,0-99,33.65-99,75.15S44.16,150,98.81,150s98.95-33.65,98.95-75.15S153.46-.3,98.81-.3Z"/><text class="cls-1" transform="translate(31.97 85.35) scale(1.7 1)">M</text><path d="M187.36,96c-12.16,28.36-47.27,48.86-88.66,48.86S22.19,124.36,10,96Z"/><text class="cls-2" transform="translate(38.43 122.71)">HI-M<tspan class="cls-3" x="53.98" y="0">O</tspan><tspan class="cls-4" x="71.5" y="0">T</tspan><tspan x="84.28" y="0">OR</tspan></text></g><g id="blue"><path class="cls-5" d="M99.18,2.39c53,0,96.12,32.44,96.12,72.32S152.18,147,99.18,147,3.06,114.58,3.06,74.71,46.18,2.39,99.18,2.39m0-2.83C44.53-.44.22,33.2.22,74.71s44.31,75.15,99,75.15,99-33.65,99-75.15S153.83-.44,99.18-.44Z"/><text class="cls-6" transform="translate(32.34 85.21) scale(1.7 1)">M</text><path class="cls-5" d="M187.73,95.86c-12.16,28.36-47.26,48.86-88.66,48.86s-76.5-20.5-88.66-48.86Z"/><text class="cls-2" transform="translate(38.8 122.57)">HI-M<tspan class="cls-3" x="53.98" y="0">O</tspan><tspan class="cls-4" x="71.5" y="0">T</tspan><tspan x="84.28" y="0">OR</tspan></text></g></svg>